<svg width="300" height="300" viewBox="0 0 300 300" fill="none" xmlns="http://www.w3.org/2000/svg">
<rect width="300" height="300" rx="150" fill="#F5F5F5"/>
<g clip-path="url(#clip0_1_6)">
<path fill-rule="evenodd" clip-rule="evenodd" d="M205.52 45.998C205.52 45.998 135.134 13.4883 72.4649 59.9383C16.5623 101.374 18.8171 177.573 51.7913 218.462C82.4398 256.468 150.478 291.496 213.418 250.888C276.414 210.243 273.698 155.469 273.698 155.469C273.698 155.469 264.153 217.947 187.078 242.583C137.174 253.99 91.6349 232.35 69.0479 197.495C47.5578 164.332 47.0243 119.127 76.4249 82.068C117.711 30.0287 205.52 45.998 205.52 45.998Z" fill="#16A34A"/>
<path fill-rule="evenodd" clip-rule="evenodd" d="M57.157 188.448C57.157 188.448 53.8829 153.027 88.7976 116.775C131.496 72.4422 198.479 100.161 290.745 40.8766C292.978 51.3867 289.273 107.108 243.689 155.697C188.571 214.45 108.404 214.082 108.404 214.082C108.404 214.082 124.964 163.384 181.494 130.131C196.842 121.102 81.7444 135.278 93.7265 234.01C91.2947 238.181 57.157 188.448 57.157 188.448Z" fill="#16A34A"/>
</g>
<defs>
<clipPath id="clip0_1_6">
<rect width="264" height="236" fill="white" transform="translate(28 34)"/>
</clipPath>
</defs>
</svg>
