<svg width="27" height="31" viewBox="0 0 27 31" fill="none" xmlns="http://www.w3.org/2000/svg">
<path d="M0 7.75195V6.17285C0 5.03809 0.246094 4.00586 0.738281 3.07617C1.23047 2.14648 1.93457 1.40137 2.85059 0.84082C3.7666 0.280273 4.85352 0 6.11133 0C7.39648 0 8.49023 0.280273 9.39258 0.84082C10.3086 1.40137 11.0127 2.14648 11.5049 3.07617C11.9971 4.00586 12.2432 5.03809 12.2432 6.17285V7.75195C12.2432 8.85938 11.9971 9.87793 11.5049 10.8076C11.0264 11.7373 10.3291 12.4824 9.41309 13.043C8.51074 13.6035 7.42383 13.8838 6.15234 13.8838C4.88086 13.8838 3.78027 13.6035 2.85059 13.043C1.93457 12.4824 1.23047 11.7373 0.738281 10.8076C0.246094 9.87793 0 8.85938 0 7.75195ZM2.85059 6.17285V7.75195C2.85059 8.38086 2.9668 8.97559 3.19922 9.53613C3.44531 10.0967 3.81445 10.5547 4.30664 10.9102C4.79883 11.252 5.41406 11.4229 6.15234 11.4229C6.89062 11.4229 7.49902 11.252 7.97754 10.9102C8.45605 10.5547 8.81152 10.0967 9.04395 9.53613C9.27637 8.97559 9.39258 8.38086 9.39258 7.75195V6.17285C9.39258 5.53027 9.26953 4.92871 9.02344 4.36816C8.79102 3.79395 8.42871 3.33594 7.93652 2.99414C7.45801 2.63867 6.84961 2.46094 6.11133 2.46094C5.38672 2.46094 4.77832 2.63867 4.28613 2.99414C3.80762 3.33594 3.44531 3.79395 3.19922 4.36816C2.9668 4.92871 2.85059 5.53027 2.85059 6.17285ZM14.54 24.5684V22.9688C14.54 21.8477 14.7861 20.8223 15.2783 19.8926C15.7705 18.9629 16.4746 18.2178 17.3906 17.6572C18.3066 17.0967 19.3936 16.8164 20.6514 16.8164C21.9365 16.8164 23.0303 17.0967 23.9326 17.6572C24.8486 18.2178 25.5527 18.9629 26.0449 19.8926C26.5371 20.8223 26.7832 21.8477 26.7832 22.9688V24.5684C26.7832 25.6895 26.5371 26.7148 26.0449 27.6445C25.5664 28.5742 24.8691 29.3193 23.9531 29.8799C23.0508 30.4404 21.9639 30.7207 20.6924 30.7207C19.4209 30.7207 18.3271 30.4404 17.4111 29.8799C16.4951 29.3193 15.7842 28.5742 15.2783 27.6445C14.7861 26.7148 14.54 25.6895 14.54 24.5684ZM17.3906 22.9688V24.5684C17.3906 25.1973 17.5068 25.7988 17.7393 26.373C17.9854 26.9336 18.3545 27.3916 18.8467 27.7471C19.3389 28.0889 19.9541 28.2598 20.6924 28.2598C21.4307 28.2598 22.0391 28.0889 22.5176 27.7471C23.0098 27.3916 23.3721 26.9336 23.6045 26.373C23.8369 25.8125 23.9531 25.2109 23.9531 24.5684V22.9688C23.9531 22.3262 23.8301 21.7246 23.584 21.1641C23.3516 20.6035 22.9893 20.1523 22.4971 19.8105C22.0186 19.4551 21.4033 19.2773 20.6514 19.2773C19.9268 19.2773 19.3184 19.4551 18.8262 19.8105C18.3477 20.1523 17.9854 20.6035 17.7393 21.1641C17.5068 21.7246 17.3906 22.3262 17.3906 22.9688ZM21.5947 4.67578L7.01367 28.0137L4.88086 26.6602L19.4619 3.32227L21.5947 4.67578Z" fill="black"/>
</svg>
