<svg width="34" height="34" viewBox="0 0 34 34" fill="none" xmlns="http://www.w3.org/2000/svg">
<path d="M9.5 32H5C4.20435 32 3.44129 31.6839 2.87868 31.1213C2.31607 30.5587 2 29.7956 2 29V18.5C2 17.7044 2.31607 16.9413 2.87868 16.3787C3.44129 15.8161 4.20435 15.5 5 15.5H9.5M20 12.5V6.5C20 5.30653 19.5259 4.16193 18.682 3.31802C17.8381 2.47411 16.6935 2 15.5 2L9.5 15.5V32H26.42C27.1435 32.0082 27.8456 31.7546 28.3969 31.286C28.9482 30.8174 29.3115 30.1654 29.42 29.45L31.49 15.95C31.5553 15.52 31.5263 15.081 31.405 14.6634C31.2838 14.2457 31.0732 13.8594 30.7878 13.5313C30.5024 13.2031 30.1491 12.9409 29.7524 12.7628C29.3556 12.5848 28.9249 12.4951 28.49 12.5H20Z" stroke="black" stroke-width="3" stroke-linecap="round" stroke-linejoin="round"/>
</svg>
