<svg version="1.1" id="Слой_2" xmlns="http://www.w3.org/2000/svg" xmlns:xlink="http://www.w3.org/1999/xlink" x="0px" y="0px"
	 viewBox="0 0 32 32" style="enable-background:new 0 0 32 32;" xml:space="preserve">
<style type="text/css">
	.st0{stroke:#000000;stroke-width:0.25;stroke-miterlimit:10;}
	.st1{fill:none;stroke:#000000;stroke-width:1.3;stroke-linecap:round;stroke-miterlimit:10;}
</style>
<g>
	<path class="st0" d="M6.7,20.2l0.5,0l0,0c0,0,0-0.1,0-0.2c0-0.6,0.2-2.9,2.4-5.2c0.8-0.8,1.7-1.3,2.7-1.7c3.1-1.1,7.6-0.7,13.2-4.3
		l-0.3-0.4l-0.5,0.1c0,0.1,0,0.2,0,0.4c0,1.4-0.6,5.1-3.7,8.3c-2.1,2.2-4.7,3.4-6.7,3.9c-2.1,0.6-3.6,0.6-3.7,0.6l0,0l0,0.5l0.4,0.1
		l0,0c0.1-0.4,1.5-4,5.6-6.4l0.2-0.1c0.1-0.1,0.2-0.2,0.2-0.4c0-0.2-0.1-0.3-0.2-0.4c-0.1-0.1-0.2-0.1-0.3-0.1l-0.2,0
		c-0.4,0-1,0.1-1.8,0.4c-1.1,0.4-2.5,1.1-3.6,2.3c-1.1,1.2-2,2.9-2,5.1c0,0.4,0,0.8,0.1,1.2l0.5-0.1l-0.4-0.2l0.4,0.2l-0.2-0.4
		l-0.2,0.2l0.4,0.2l-0.2-0.4l0.2,0.4v-0.4l-0.2,0.1l0.2,0.4v-0.4v0.4l0.1-0.3c0,0-0.1,0-0.1,0v0.4l0.1-0.3l-0.1,0.1l0.1-0.1l0,0
		l-0.1,0.1l0.1-0.1c0,0-0.1-0.1-0.2-0.2c-0.4-0.4-1-1.2-1.5-2c-0.5-0.7-0.9-1.3-0.9-1.3L6.7,20.2l0.5,0L6.7,20.2l-0.4,0.3
		c0,0,0.6,0.9,1.3,1.8c0.3,0.5,0.7,0.9,1,1.3C8.8,23.7,8.9,23.9,9,24l0.2,0.2c0.1,0,0.1,0.1,0.4,0.1c0.1,0,0.2,0,0.2-0.1
		c0.1,0,0.2-0.1,0.2-0.2l0.1-0.1l0-0.2c0-0.4-0.1-0.7-0.1-1.1c0-2.7,1.3-4.4,2.8-5.4c0.7-0.5,1.5-0.9,2.2-1.1
		c0.7-0.2,1.2-0.3,1.5-0.3l0.1,0l0,0l0-0.2l-0.1,0.2l0.1,0l0-0.2l-0.1,0.2l0.2-0.3l-0.3,0.2l0.1,0.1l0.2-0.3l-0.3,0.2l0.3-0.2
		l-0.4,0c0,0.1,0,0.2,0.1,0.2l0.3-0.2l-0.4,0h0.4l-0.3-0.3c0,0-0.1,0.1-0.1,0.3h0.4l-0.3-0.3l0.1,0.1l-0.1-0.1l0,0l0.1,0.1l-0.1-0.1
		l0,0c-4.6,2.7-6,6.9-6,6.9l-0.2,0.6l0.6,0l0,0c0.1,0,1.7,0,3.9-0.6c2.2-0.6,4.9-1.8,7.2-4.2c3.2-3.5,3.9-7.3,3.9-8.9
		c0-0.3,0-0.4,0-0.6l-0.1-0.7L25,8.1c-3.6,2.3-6.7,2.9-9.3,3.4c-1.3,0.2-2.6,0.4-3.7,0.8c-1.1,0.4-2.2,0.9-3.1,1.9
		c-2.4,2.5-2.7,5.1-2.7,5.8c0,0.1,0,0.2,0,0.2l0,0.1l0.1,0.1L6.7,20.2z"/>
	<path class="st1" d="M3,14v-3.8c0-2,1.4-3.6,3.2-3.6h6.5"/>
	<path class="st1" d="M29,14v7.8c0,2-1.4,3.6-3.2,3.6H14.7"/>
	<line class="st1" x1="12.7" y1="6.6" x2="19.2" y2="6.6"/>
</g>
</svg>
