<?xml version="1.0" encoding="utf-8"?>
<!-- Generator: Adobe Illustrator 28.4.1, SVG Export Plug-In . SVG Version: 6.00 Build 0)  -->
<svg version="1.1" id="Слой_1" xmlns="http://www.w3.org/2000/svg" xmlns:xlink="http://www.w3.org/1999/xlink" x="0px" y="0px"
	 viewBox="0 0 194 174" style="enable-background:new 0 0 194 174;" xml:space="preserve">
<style type="text/css">
	.st0{fill-rule:evenodd;clip-rule:evenodd;fill:none;stroke:#000000;stroke-width:5;stroke-miterlimit:10;}
	.st1{fill-rule:evenodd;clip-rule:evenodd;fill:none;stroke:#000000;stroke-width:7;stroke-linecap:square;stroke-miterlimit:10;}
</style>
<path class="st0" d="M48.4,104.5c-1.6-14.8,12.9-31.1,14.7-33.4c14.9-17.8,49.5-32,93.9-35.3c1,4.9-0.7,30.8-21.9,53.4
	c-25.6,27.3-62.9,27.2-62.9,27.2s7.7-23.6,34-39.1c0.5-0.3,0.7-0.5,0.7-0.7c-0.2-0.9-26.4,4.9-37.8,24c-5.5,9.2-6.2,19.1-5.6,26.4
	c-0.9-0.1-2.2-0.2-3.6-0.9c-1.5-0.6-4.1-2.2-7.3-8.6C52.3,117,49,110.3,48.4,104.5z"/>
<g>
	<path d="M82.3,35.7c-8.3,0-18,1.8-26.6,7.8c-22.6,15.7-26,51.7-9.7,74.9c10.9,15.5,29.6,24.2,47.6,24.2c10.3,0,20.4-2.8,28.5-8.9
		c17.4-12.9,19.2-35.3,19.5-39.7c-0.2,1.3-5.3,29.8-30.9,39.6c-5.2,2-10.5,2.9-15.6,2.9c-16.7,0-32-9.3-40.9-19.8
		c-10.5-12.5-11.9-26.5-12.1-30.9c-0.2-3.4-0.9-22,10.5-34.8c8.3-9.3,20.7-14.2,34.1-14.2c5.4,0,10.9,0.8,16.3,2.4
		C101,38.5,92.7,35.7,82.3,35.7L82.3,35.7z"/>
</g>
<path class="st1" d="M87.8,121.2"/>
<path class="st0" d="M25.7,118.8"/>
<path class="st0" d="M141.7,136.4"/>
</svg>
