<svg
 xmlns="http://www.w3.org/2000/svg"
 xmlns:xlink="http://www.w3.org/1999/xlink"
 width="1124px" height="174px">
<defs>
<linearGradient id="PSgrad_0" x1="0%" x2="78.801%" y1="61.566%" y2="0%">
  <stop offset="0%" stop-color="rgb(62,192,39)" stop-opacity="1" />
  <stop offset="100%" stop-color="rgb(104,209,86)" stop-opacity="1" />
</linearGradient>
<linearGradient id="PSgrad_1" x1="0%" x2="78.801%" y1="61.566%" y2="0%">
  <stop offset="0%" stop-color="rgb(60,192,37)" stop-opacity="1" />
  <stop offset="100%" stop-color="rgb(105,209,87)" stop-opacity="1" />
</linearGradient>

</defs>
<path fill-rule="evenodd"  fill="rgb(44, 44, 44)"
 d="M775.949,123.027 L775.949,77.208 L755.928,108.650 L750.553,108.650 L730.398,77.074 L730.398,123.027 L711.587,123.027 L711.587,52.216 L734.026,52.216 L753.375,82.852 L772.589,52.216 L794.626,52.216 L794.626,123.027 L775.949,123.027 ZM682.900,119.668 C677.659,122.536 671.411,123.968 664.156,123.968 C656.988,123.968 650.719,122.513 645.344,119.601 C639.970,116.691 635.804,112.526 632.848,107.105 C629.892,101.686 628.414,95.260 628.414,87.823 C628.414,80.211 629.913,73.648 632.915,68.139 C635.916,62.630 640.081,58.397 645.412,55.441 C650.740,52.485 656.944,51.007 664.021,51.007 C671.187,51.007 677.412,52.531 682.698,55.575 C687.983,58.622 692.104,62.877 695.060,68.340 C698.016,73.805 699.494,80.345 699.494,87.958 C699.494,95.394 698.037,101.821 695.127,107.239 C692.215,112.660 688.140,116.802 682.900,119.668 ZM679.272,78.619 C678.151,75.619 676.360,73.156 673.897,71.229 C671.432,69.304 668.096,68.340 663.887,68.340 C659.856,68.340 656.585,69.304 654.078,71.229 C651.569,73.156 649.755,75.596 648.636,78.552 C647.515,81.508 646.957,84.645 646.957,87.958 C646.957,91.183 647.515,94.229 648.636,97.095 C649.755,99.963 651.569,102.291 654.078,104.082 C656.585,105.875 659.856,106.769 663.887,106.769 C668.096,106.769 671.432,105.875 673.897,104.082 C676.360,102.291 678.151,99.963 679.272,97.095 C680.391,94.229 680.951,91.183 680.951,87.958 C680.951,84.733 680.391,81.622 679.272,78.619 ZM597.510,96.288 L570.771,96.288 L570.771,123.027 L551.960,123.027 L551.960,52.216 L570.771,52.216 L570.771,79.493 L597.510,79.493 L597.510,52.216 L616.321,52.216 L616.321,123.027 L597.510,123.027 L597.510,96.288 ZM523.272,119.668 C518.032,122.536 511.784,123.968 504.528,123.968 C497.361,123.968 491.092,122.513 485.717,119.601 C480.342,116.691 476.177,112.526 473.221,107.105 C470.265,101.686 468.787,95.260 468.787,87.823 C468.787,80.211 470.286,73.648 473.288,68.139 C476.288,62.630 480.454,58.397 485.784,55.441 C491.113,52.485 497.317,51.007 504.394,51.007 C511.559,51.007 517.784,52.531 523.071,55.575 C528.355,58.622 532.476,62.877 535.433,68.340 C538.389,73.805 539.867,80.345 539.867,87.958 C539.867,95.394 538.410,101.821 535.500,107.239 C532.588,112.660 528.513,116.802 523.272,119.668 ZM519.644,78.619 C518.523,75.619 516.732,73.156 514.270,71.229 C511.805,69.304 508.469,68.340 504.259,68.340 C500.228,68.340 496.958,69.304 494.451,71.229 C491.942,73.156 490.128,75.596 489.009,78.552 C487.888,81.508 487.329,84.645 487.329,87.958 C487.329,91.183 487.888,94.229 489.009,97.095 C490.128,99.963 491.942,102.291 494.451,104.082 C496.958,105.875 500.228,106.769 504.259,106.769 C508.469,106.769 511.805,105.875 514.270,104.082 C516.732,102.291 518.523,99.963 519.644,97.095 C520.763,94.229 521.324,91.183 521.324,87.958 C521.324,84.733 520.763,81.622 519.644,78.619 ZM445.810,119.265 C441.061,122.402 435.061,123.968 427.805,123.968 C424.490,123.968 421.511,123.609 418.870,122.893 C416.226,122.177 413.942,121.193 412.017,119.937 C410.090,118.684 408.410,117.384 406.978,116.040 L406.978,149.498 L388.167,149.498 L388.167,52.216 L405.769,52.216 L406.709,61.219 C409.575,57.457 412.978,54.836 416.921,53.358 C420.862,51.880 425.027,51.141 429.417,51.141 C436.136,51.141 441.733,52.754 446.213,55.979 C450.691,59.203 454.095,63.570 456.425,69.079 C458.753,74.588 459.919,80.792 459.919,87.689 C459.919,94.588 458.753,100.790 456.425,106.299 C454.095,111.808 450.557,116.131 445.810,119.265 ZM439.629,78.283 C438.554,75.239 436.784,72.797 434.322,70.960 C431.857,69.125 428.521,68.206 424.311,68.206 C420.549,68.206 417.368,69.125 414.771,70.960 C412.172,72.797 410.203,75.193 408.859,78.149 C407.516,81.105 406.844,84.286 406.844,87.689 C406.844,91.094 407.493,94.273 408.792,97.229 C410.090,100.185 412.061,102.560 414.704,104.350 C417.345,106.143 420.684,107.038 424.715,107.038 C428.924,107.038 432.239,106.097 434.658,104.216 C437.076,102.335 438.777,99.940 439.764,97.028 C440.748,94.118 441.242,91.094 441.242,87.958 C441.242,84.555 440.704,81.330 439.629,78.283 ZM346.648,123.027 L327.836,123.027 L327.836,52.216 L378.896,52.216 L378.896,69.012 L346.648,69.012 L346.648,123.027 ZM293.707,106.769 L251.650,106.769 L245.738,123.027 L225.046,123.027 L262.131,27.896 L283.630,27.896 L320.312,123.027 L299.619,123.027 L293.707,106.769 ZM272.880,48.320 L257.831,89.436 L287.661,89.436 L272.880,48.320 Z"/>
<path fill-rule="evenodd"  fill="rgb(60, 192, 37)"
 d="M1104.324,123.027 L1104.324,81.911 C1103.696,82.898 1103.001,83.860 1102.241,84.800 C1101.479,85.741 1100.740,86.660 1100.024,87.555 L1072.748,123.027 L1055.817,123.027 L1055.817,52.216 L1074.629,52.216 L1074.629,94.139 C1075.254,93.244 1075.926,92.325 1076.644,91.384 C1077.360,90.444 1077.988,89.616 1078.525,88.898 L1106.877,52.216 L1123.269,52.216 L1123.269,123.027 L1104.324,123.027 ZM1024.107,123.027 L1005.430,123.027 L1005.430,69.012 L982.319,69.012 L982.319,52.216 L1047.352,52.216 L1047.352,69.012 L1024.107,69.012 L1024.107,123.027 ZM954.908,81.911 C954.280,82.898 953.585,83.860 952.825,84.800 C952.063,85.741 951.324,86.660 950.608,87.555 L923.332,123.027 L906.402,123.027 L906.402,52.216 L925.213,52.216 L925.213,94.139 C925.839,93.244 926.511,92.325 927.229,91.384 C927.945,90.444 928.572,89.616 929.110,88.898 L957.461,52.216 L973.854,52.216 L973.854,123.027 L954.908,123.027 L954.908,81.911 ZM838.211,101.663 C842.107,104.619 847.234,106.097 853.596,106.097 C857.358,106.097 860.717,105.539 863.673,104.418 C866.629,103.299 869.069,101.663 870.996,99.513 C872.921,97.363 874.242,94.811 874.960,91.854 L894.175,91.854 C893.368,98.753 891.038,104.619 887.187,109.456 C883.335,114.294 878.454,117.945 872.542,120.407 C866.629,122.872 860.089,124.102 852.924,124.102 C843.159,124.102 834.852,122.110 827.999,118.123 C821.146,114.138 815.950,108.516 812.412,101.260 C808.873,94.004 807.105,85.539 807.105,75.865 C807.105,66.012 808.919,57.412 812.547,50.066 C816.175,42.722 821.392,37.012 828.200,32.935 C835.007,28.860 843.203,26.821 852.790,26.821 C860.045,26.821 866.539,28.053 872.273,30.516 C878.004,32.981 882.640,36.609 886.180,41.400 C889.717,46.193 891.934,52.082 892.831,59.069 L874.288,59.069 C873.123,54.681 870.772,51.209 867.234,48.656 C863.694,46.103 859.015,44.826 853.193,44.826 C846.743,44.826 841.614,46.283 837.808,49.193 C833.999,52.105 831.245,55.867 829.544,60.480 C827.842,65.094 826.991,69.953 826.991,75.059 C826.991,80.345 827.886,85.361 829.679,90.108 C831.469,94.857 834.314,98.707 838.211,101.663 Z"/>
<path fill-rule="evenodd"  fill="url(#PSgrad_0)"
 d="M130.450,8.846 C130.450,8.846 78.727,-15.123 32.675,19.124 C-8.405,49.674 -6.748,105.855 17.483,136.002 C40.005,164.023 90.003,189.849 136.254,159.909 C182.547,129.942 180.551,89.558 180.551,89.558 C180.551,89.558 173.537,135.622 116.898,153.786 C80.226,162.196 46.762,146.241 30.164,120.543 C14.372,96.092 13.980,62.763 35.585,35.440 C65.924,-2.928 130.450,8.846 130.450,8.846 Z"/>
<path fill-rule="evenodd"  fill="url(#PSgrad_1)"
 d="M21.426,113.873 C21.426,113.873 19.020,87.757 44.677,61.029 C76.054,28.343 125.276,48.780 193.078,5.070 C194.719,12.819 191.996,53.902 158.499,89.726 C117.995,133.044 59.085,132.772 59.085,132.772 C59.085,132.772 71.254,95.393 112.795,70.876 C124.073,64.219 39.494,74.671 48.299,147.465 C46.512,150.540 21.426,113.873 21.426,113.873 Z"/>
</svg>
