<svg width="300" height="300" viewBox="0 0 300 300" fill="none" xmlns="http://www.w3.org/2000/svg">
<rect width="300" height="300" fill="#F5F5F5"/>
<g opacity="0.4">
<g clip-path="url(#clip0_1_6)">
<path fill-rule="evenodd" clip-rule="evenodd" d="M183.45 71.846C183.45 71.846 131.727 47.877 85.675 82.124C44.595 112.674 46.252 168.855 70.483 199.002C93.005 227.023 143.003 252.849 189.254 222.909C235.547 192.942 233.551 152.558 233.551 152.558C233.551 152.558 226.537 198.622 169.898 216.786C133.226 225.196 99.762 209.241 83.164 183.543C67.372 159.092 66.98 125.763 88.585 98.44C118.924 60.072 183.45 71.846 183.45 71.846Z" fill="#C0CDBE"/>
<path fill-rule="evenodd" clip-rule="evenodd" d="M74.426 176.873C74.426 176.873 72.02 150.757 97.677 124.029C129.054 91.343 178.276 111.78 246.078 68.07C247.719 75.819 244.996 116.902 211.499 152.726C170.995 196.044 112.085 195.772 112.085 195.772C112.085 195.772 124.254 158.393 165.795 133.876C177.073 127.219 92.494 137.671 101.299 210.465C99.512 213.54 74.426 176.873 74.426 176.873Z" fill="#C0CDBE"/>
</g>
</g>
<defs>
<clipPath id="clip0_1_6">
<rect width="194" height="174" fill="white" transform="translate(53 63)"/>
</clipPath>
</defs>
</svg>
