<?xml version="1.0" standalone="no"?>
<!DOCTYPE svg PUBLIC "-//W3C//DTD SVG 20010904//EN"
 "http://www.w3.org/TR/2001/REC-SVG-20010904/DTD/svg10.dtd">
<svg version="1.0" xmlns="http://www.w3.org/2000/svg"
 width="290.000000pt" height="290.000000pt" viewBox="0 0 290.000000 290.000000"
 preserveAspectRatio="xMidYMid meet">
<metadata>
Created by potrace 1.14, written by Peter Selinger 2001-2017
</metadata>
<g transform="translate(0.000000,290.000000) scale(0.100000,-0.100000)"
fill="#000000" stroke="none">
<path d="M1230 2469 c-255 -28 -471 -130 -646 -304 -86 -86 -124 -136 -172
-230 -80 -156 -108 -278 -106 -475 2 -323 138 -588 406 -790 113 -85 302 -184
391 -205 188 -43 339 -50 487 -22 38 8 133 39 177 59 26 12 51 21 56 20 4 -1
7 2 7 8 0 5 5 10 11 10 13 0 159 95 209 136 219 181 369 440 394 679 l5 50
-18 -55 c-52 -158 -129 -279 -257 -405 -98 -97 -119 -115 -130 -115 -4 0 -15
-6 -23 -14 -28 -25 -143 -87 -228 -122 -238 -99 -543 -82 -783 42 -145 75
-149 80 -144 169 11 192 86 359 225 497 133 133 340 236 509 255 48 5 53 4 42
-9 -7 -8 -40 -33 -74 -54 -34 -21 -73 -47 -87 -58 -119 -99 -216 -197 -282
-286 -27 -36 -52 -69 -57 -75 -40 -50 -144 -253 -136 -267 4 -6 79 -3 164 7
25 3 96 17 159 31 360 81 658 252 897 516 25 28 119 157 156 214 67 104 159
330 189 463 19 83 34 244 25 266 -4 12 -22 6 -88 -33 -270 -157 -593 -272
-883 -316 -82 -13 -278 -52 -364 -72 -251 -61 -406 -164 -541 -360 -76 -110
-150 -273 -150 -331 0 -34 -17 -28 -24 10 -32 152 -27 331 14 456 119 366 392
575 820 629 70 9 351 9 410 0 108 -16 -66 43 -200 67 -14 3 -37 7 -53 11 -42
9 -234 11 -307 3z"/>
</g>
</svg>
